<svg xmlns="http://www.w3.org/2000/svg" xmlns:xlink="http://www.w3.org/1999/xlink" width="320" height="245" viewBox="0 0 320 245">
  <defs>
    <linearGradient id="linear-gradient" x1="0.5" x2="0.5" y2="1" gradientUnits="objectBoundingBox">
      <stop offset="0" stop-color="#4b5c5b"/>
      <stop offset="1" stop-color="#4b5c5b" stop-opacity="0"/>
    </linearGradient>
  </defs>
  <g id="Group_33" data-name="Group 33" transform="translate(-4786 -1637)">
    <rect id="Rectangle_93" data-name="Rectangle 93" width="320" height="245" transform="translate(4786 1637)" opacity="0.2" fill="url(#linear-gradient)"/>
    <g id="Group_32" data-name="Group 32" transform="translate(4202 644)" opacity="0.8">
      <path id="Path_61" data-name="Path 61" d="M.74-6.98A6.941,6.941,0,0,0,7.84.12,6.609,6.609,0,0,0,14.3-4.04H11.56A3.884,3.884,0,0,1,7.84-1.86c-2.76,0-4.76-1.98-4.76-5.12s2-5.1,4.76-5.1A3.884,3.884,0,0,1,11.56-9.9H14.3a6.626,6.626,0,0,0-6.46-4.18A6.953,6.953,0,0,0,.74-6.98ZM27.46-5.52a5.435,5.435,0,0,0-5.62-5.68,5.435,5.435,0,0,0-5.62,5.68A5.373,5.373,0,0,0,21.74.18,5.52,5.52,0,0,0,27.46-5.52Zm-8.92,0c0-2.5,1.54-3.7,3.26-3.7,1.7,0,3.32,1.2,3.32,3.7A3.394,3.394,0,0,1,21.74-1.8C20.02-1.8,18.54-3.02,18.54-5.52ZM45.34,0H47.6V-6.5a4.306,4.306,0,0,0-4.54-4.7,4.315,4.315,0,0,0-3.84,2.18,4.251,4.251,0,0,0-3.96-2.18A4.2,4.2,0,0,0,32-9.76v-1.26H29.72V0H32V-6.16c0-2.02,1.1-3.06,2.78-3.06,1.66,0,2.76,1.04,2.76,3.06V0H39.8V-6.16c0-2.02,1.1-3.06,2.78-3.06,1.66,0,2.76,1.04,2.76,3.06Zm7.44-9.4v-1.62H50.5V5.24h2.28V-1.6A4.982,4.982,0,0,0,56.62.18c2.9,0,5.18-2.34,5.18-5.74s-2.28-5.64-5.18-5.64A4.808,4.808,0,0,0,52.78-9.4Zm6.7,3.84A3.475,3.475,0,0,1,56.12-1.8a3.435,3.435,0,0,1-3.34-3.72,3.429,3.429,0,0,1,3.34-3.7A3.384,3.384,0,0,1,59.48-5.56Zm3.82,0c0,3.4,2.3,5.74,5.16,5.74a4.743,4.743,0,0,0,3.86-1.82V0h2.3V-11.02h-2.3v1.6A4.691,4.691,0,0,0,68.5-11.2C65.6-11.2,63.3-8.96,63.3-5.56Zm9.02.04A3.424,3.424,0,0,1,68.98-1.8a3.472,3.472,0,0,1-3.34-3.76,3.381,3.381,0,0,1,3.34-3.66A3.417,3.417,0,0,1,72.32-5.52ZM85.44,0H87.7V-6.5c0-3.08-1.94-4.7-4.52-4.7A4.239,4.239,0,0,0,79.9-9.76v-1.26H77.62V0H79.9V-6.16c0-2.02,1.1-3.06,2.78-3.06,1.66,0,2.76,1.04,2.76,3.06Zm9.5-2.62-3.1-8.4H89.3L93.64-.18,91.4,5.18h2.36l6.76-16.2H98.16Z" transform="translate(672 1052)" fill="#4b5c5b"/>
      <g id="_3D_Shape_Object" data-name="3D, Shape, Object" transform="translate(620 1025)">
        <path id="Path_35" data-name="Path 35" d="M0,0H40V40H0Z" fill="none"/>
        <path id="Path_36" data-name="Path 36" d="M18.359,35.405a4.351,4.351,0,0,1-1.939-.458L2.935,28.2a2.669,2.669,0,0,1-1.029-3.863L16.14,2.991a2.666,2.666,0,0,1,4.437,0L34.81,24.34A2.667,2.667,0,0,1,33.784,28.2L20.3,34.947A4.35,4.35,0,0,1,18.359,35.405Zm0-31.6a.66.66,0,0,0-.555.3L3.57,25.449a.669.669,0,0,0,.259.966l13.487,6.743a2.329,2.329,0,0,0,2.087,0L32.89,26.415a.667.667,0,0,0,.257-.966L18.913,4.1A.66.66,0,0,0,18.358,3.8Z" transform="translate(1.64 1.869)" fill="#4b5c5b"/>
        <path id="Path_37" data-name="Path 37" d="M12,35.4a1,1,0,0,1-1-1V2.8a1,1,0,1,1,2,0V34.4A1,1,0,0,1,12,35.4Z" transform="translate(8 1.867)" fill="#4b5c5b"/>
      </g>
    </g>
    <rect id="Rectangle_92" data-name="Rectangle 92" width="284" height="1" transform="translate(4822 1733)" fill="#4b5c5b" opacity="0.4"/>
  </g>
</svg>
