<svg xmlns="http://www.w3.org/2000/svg" width="80" height="80" viewBox="0 0 80 80">
  <g id="Group_30" data-name="Group 30" transform="translate(-3229 242)">
    <rect id="Rectangle_30" data-name="Rectangle 30" width="80" height="80" transform="translate(3229 -242)" fill="#1b463e"/>
    <path id="Path_60" data-name="Path 60" d="M4.914-7.63a2.167,2.167,0,0,1,1.974.847,4.305,4.305,0,0,1,.546,2.345V-.854A.84.84,0,0,1,7.2-.245a.8.8,0,0,1-.6.245.8.8,0,0,1-.6-.245.84.84,0,0,1-.238-.609V-4.438a2.017,2.017,0,0,0-.322-1.211A1.28,1.28,0,0,0,4.326-6.09a1.707,1.707,0,0,0-1.274.469A1.617,1.617,0,0,0,2.59-4.438V-.854a.84.84,0,0,1-.238.609A.8.8,0,0,1,1.75,0a.8.8,0,0,1-.6-.245A.84.84,0,0,1,.91-.854V-6.636a.84.84,0,0,1,.238-.609.8.8,0,0,1,.6-.245.8.8,0,0,1,.6.245.84.84,0,0,1,.238.609V-6.4a3.381,3.381,0,0,1,.987-.868A2.558,2.558,0,0,1,4.914-7.63Zm10.024.154a.773.773,0,0,1,.56.217.72.72,0,0,1,.224.539,1.085,1.085,0,0,1-.112.42L12.992-.532a.871.871,0,0,1-.287.378A.779.779,0,0,1,12.278,0l-.126.014a.736.736,0,0,1-.441-.147.963.963,0,0,1-.315-.4L8.792-6.3a1.11,1.11,0,0,1-.1-.448.7.7,0,0,1,.238-.511A.811.811,0,0,1,9.52-7.49a.907.907,0,0,1,.49.14.864.864,0,0,1,.336.392l1.932,4.424L14.2-6.944A.923.923,0,0,1,14.5-7.35.66.66,0,0,1,14.938-7.476Zm9.24,3.738a4,4,0,0,1-.5,2.009A3.561,3.561,0,0,1,22.3-.35,3.873,3.873,0,0,1,20.37.14a3.861,3.861,0,0,1-1.932-.49,3.575,3.575,0,0,1-1.372-1.379,4,4,0,0,1-.5-2.009,4,4,0,0,1,.5-2.009,3.625,3.625,0,0,1,1.372-1.386,3.819,3.819,0,0,1,1.932-.5,3.83,3.83,0,0,1,1.925.5,3.61,3.61,0,0,1,1.379,1.386A4,4,0,0,1,24.178-3.738Zm-1.68,0a2.566,2.566,0,0,0-.287-1.225,2.112,2.112,0,0,0-.77-.833A2.02,2.02,0,0,0,20.37-6.09,2.02,2.02,0,0,0,19.3-5.8a2.112,2.112,0,0,0-.77.833,2.566,2.566,0,0,0-.287,1.225,2.525,2.525,0,0,0,.287,1.218,2.124,2.124,0,0,0,.77.826A2.02,2.02,0,0,0,20.37-1.4a2.02,2.02,0,0,0,1.071-.294,2.124,2.124,0,0,0,.77-.826A2.525,2.525,0,0,0,22.5-3.738ZM27.16-.854a.84.84,0,0,1-.238.609.8.8,0,0,1-.6.245.8.8,0,0,1-.6-.245.84.84,0,0,1-.238-.609V-6.636a.84.84,0,0,1,.238-.609.8.8,0,0,1,.6-.245.8.8,0,0,1,.6.245.84.84,0,0,1,.238.609ZM26.306-8.4a1.112,1.112,0,0,1-.672-.154.658.658,0,0,1-.2-.546v-.266a.635.635,0,0,1,.21-.546,1.151,1.151,0,0,1,.672-.154,1.143,1.143,0,0,1,.686.154.658.658,0,0,1,.2.546V-9.1a.643.643,0,0,1-.2.553A1.222,1.222,0,0,1,26.306-8.4Zm5.838.77a4.239,4.239,0,0,1,1.918.371,1.112,1.112,0,0,1,.728.987.846.846,0,0,1-.182.539.577.577,0,0,1-.476.231.894.894,0,0,1-.364-.063,1.307,1.307,0,0,1-.273-.168,1.948,1.948,0,0,0-.259-.175,1.756,1.756,0,0,0-.413-.126,2.3,2.3,0,0,0-.441-.056,2.117,2.117,0,0,0-1.645.651,2.423,2.423,0,0,0-.595,1.7,2.4,2.4,0,0,0,.6,1.673,1.984,1.984,0,0,0,1.54.665,2.382,2.382,0,0,0,1.022-.168,1.893,1.893,0,0,0,.231-.147,1.589,1.589,0,0,1,.273-.161.757.757,0,0,1,.308-.056.709.709,0,0,1,.553.224.822.822,0,0,1,.2.574.811.811,0,0,1-.392.63,3.053,3.053,0,0,1-1.036.469A5.213,5.213,0,0,1,32.074.14a3.546,3.546,0,0,1-1.9-.5A3.389,3.389,0,0,1,28.91-1.757a4.339,4.339,0,0,1-.448-1.981,4.228,4.228,0,0,1,.469-2.016A3.451,3.451,0,0,1,30.24-7.133,3.668,3.668,0,0,1,32.144-7.63ZM42.812-3.92a.719.719,0,0,1-.266.546.891.891,0,0,1-.588.21h-4.62a2.111,2.111,0,0,0,.77,1.3,2.153,2.153,0,0,0,1.358.469,3.01,3.01,0,0,0,.9-.105,2.334,2.334,0,0,0,.511-.224q.189-.119.259-.161a1.068,1.068,0,0,1,.476-.126.687.687,0,0,1,.5.21.672.672,0,0,1,.21.49.874.874,0,0,1-.392.686,3.345,3.345,0,0,1-1.05.546A4.1,4.1,0,0,1,39.55.14,4.129,4.129,0,0,1,37.5-.35,3.42,3.42,0,0,1,36.148-1.7a3.94,3.94,0,0,1-.476-1.939,4.292,4.292,0,0,1,.5-2.114,3.578,3.578,0,0,1,1.33-1.393A3.438,3.438,0,0,1,39.27-7.63a3.27,3.27,0,0,1,1.743.5,3.767,3.767,0,0,1,1.309,1.358A3.651,3.651,0,0,1,42.812-3.92ZM39.27-6.09a1.738,1.738,0,0,0-1.918,1.526H41.02v-.1a1.447,1.447,0,0,0-.574-1.008A1.817,1.817,0,0,0,39.27-6.09Z" transform="translate(3241 -174)" fill="#fff"/>
    <path id="Path_57" data-name="Path 57" d="M7,2.25h7.172a2.732,2.732,0,0,1,1.944.806l2.828,2.828a2.732,2.732,0,0,1,.806,1.944h0V19A2.753,2.753,0,0,1,17,21.75H7A2.753,2.753,0,0,1,4.25,19V5A2.753,2.753,0,0,1,7,2.25ZM18.25,7.828a1.242,1.242,0,0,0-.366-.884L15.056,4.116a1.242,1.242,0,0,0-.884-.366H7A1.251,1.251,0,0,0,5.75,5V19A1.251,1.251,0,0,0,7,20.25H17A1.251,1.251,0,0,0,18.25,19Z" transform="translate(3237 -214)" fill="#fff"/>
    <path id="Path_58" data-name="Path 58" d="M13.75,15.75a.75.75,0,0,1-.53-.22L11,13.311V15a.75.75,0,0,1-1.5,0V11.5a.75.75,0,0,1,1.28-.53L13,13.189V11.5a.75.75,0,0,1,1.5,0V15a.75.75,0,0,1-.75.75Z" transform="translate(3237 -214)" fill="#fff"/>
  </g>
</svg>
