<svg id="Money_Coins_копия" data-name="Money, Coins — копия" xmlns="http://www.w3.org/2000/svg" width="24" height="24" viewBox="0 0 24 24">
  <path id="Path_10" data-name="Path 10" d="M0,0H24V24H0Z" fill="none"/>
  <path id="Path_11" data-name="Path 11" d="M3,9c0,1.1,2.238,2,5,2" fill="none" stroke="#f3f7f5" stroke-linecap="round" stroke-linejoin="round" stroke-width="1.5"/>
  <path id="Path_12" data-name="Path 12" d="M8,15c-2.761,0-5-.9-5-2" fill="none" stroke="#f3f7f5" stroke-linecap="round" stroke-linejoin="round" stroke-width="1.5"/>
  <path id="Path_13" data-name="Path 13" d="M13,5h0V8" fill="none" stroke="#f3f7f5" stroke-linecap="round" stroke-linejoin="round" stroke-width="1.5"/>
  <path id="Path_14" data-name="Path 14" d="M11,16c0,1.1,2.238,2,5,2s5-.9,5-2" fill="none" stroke="#f3f7f5" stroke-linecap="round" stroke-linejoin="round" stroke-width="1.5"/>
  <path id="Path_15" data-name="Path 15" d="M11,12c0,1.1,2.238,2,5,2s5-.9,5-2" fill="none" stroke="#f3f7f5" stroke-linecap="round" stroke-linejoin="round" stroke-width="1.5"/>
  <path id="Path_16" data-name="Path 16" d="M16,10c-2.76,0-5,.9-5,2" fill="none" stroke="#f3f7f5" stroke-linecap="round" stroke-linejoin="round" stroke-width="1.5"/>
  <path id="Path_17" data-name="Path 17" d="M11,12v8c0,1.1,2.238,2,5,2" fill="none" stroke="#f3f7f5" stroke-linecap="round" stroke-linejoin="round" stroke-width="1.5"/>
  <path id="Path_18" data-name="Path 18" d="M16,10c2.76,0,5,.9,5,2" fill="none" stroke="#f3f7f5" stroke-linecap="round" stroke-linejoin="round" stroke-width="1.5"/>
  <path id="Path_19" data-name="Path 19" d="M21,12v8c0,1.1-2.238,2-5,2" fill="none" stroke="#f3f7f5" stroke-linecap="round" stroke-linejoin="round" stroke-width="1.5"/>
  <path id="Path_20" data-name="Path 20" d="M8,19c-2.761,0-5-.9-5-2" fill="none" stroke="#f3f7f5" stroke-linecap="round" stroke-linejoin="round" stroke-width="1.5"/>
  <ellipse id="Ellipse_2" data-name="Ellipse 2" cx="5" cy="2" rx="5" ry="2" transform="translate(3 3)" fill="none" stroke="#f3f7f5" stroke-linecap="round" stroke-linejoin="round" stroke-width="1.5"/>
  <line id="Line_1" data-name="Line 1" y2="12" transform="translate(3 5)" fill="none" stroke="#f3f7f5" stroke-linecap="round" stroke-linejoin="round" stroke-width="1.5"/>
</svg>
