<svg id="blank-money-banknote" xmlns="http://www.w3.org/2000/svg" width="16" height="16" viewBox="0 0 16 16">
  <path id="Path_26" data-name="Path 26" d="M16,16H0V0H16Z" fill="none"/>
  <path id="Path_27" data-name="Path 27" d="M6.333,3V5.667a.667.667,0,0,1-.667.667H3" transform="translate(-1 -1)" fill="none" stroke="#f3f7f5" stroke-linecap="round" stroke-linejoin="round" stroke-width="1"/>
  <path id="Path_28" data-name="Path 28" d="M5,15H4.333A1.333,1.333,0,0,1,3,13.667V6.219a1.333,1.333,0,0,1,.39-.942L5.276,3.391A1.333,1.333,0,0,1,6.219,3h5.448A1.333,1.333,0,0,1,13,4.333V7.667" transform="translate(-1 -1)" fill="none" stroke="#f3f7f5" stroke-linecap="round" stroke-linejoin="round" stroke-width="1"/>
  <path id="Path_29" data-name="Path 29" d="M10.111,18.333h5.778A1.111,1.111,0,0,0,17,17.222V14.111A1.111,1.111,0,0,0,15.889,13H10.111A1.111,1.111,0,0,0,9,14.111v3.112a1.111,1.111,0,0,0,1.111,1.111Z" transform="translate(-3 -4.333)" fill="none" stroke="#f3f7f5" stroke-linecap="round" stroke-linejoin="round" stroke-width="1"/>
  <circle id="Ellipse_3" data-name="Ellipse 3" cx="1" cy="1" r="1" transform="translate(9 10.333)" fill="none" stroke="#f3f7f5" stroke-linecap="round" stroke-linejoin="round" stroke-width="1"/>
</svg>
