<svg id="input" xmlns="http://www.w3.org/2000/svg" width="36" height="36" viewBox="0 0 36 36">
  <path id="Path_46" data-name="Path 46" d="M0,0H36V36H0Z" fill="none"/>
  <path id="Path_47" data-name="Path 47" d="M28.5,20H4.5A1.5,1.5,0,0,1,3,18.5v-9A1.5,1.5,0,0,1,4.5,8h24A1.5,1.5,0,0,1,30,9.5v9A1.5,1.5,0,0,1,28.5,20Z" transform="translate(1.5 4)" fill="none" stroke="#788988" stroke-linecap="round" stroke-linejoin="round" stroke-width="2" fill-rule="evenodd"/>
  <path id="Path_48" data-name="Path 48" d="M14,21H12.5a3,3,0,0,1-3-3,3,3,0,0,1-3,3H5" transform="translate(2.5 9)" fill="none" stroke="#788988" stroke-linecap="round" stroke-linejoin="round" stroke-width="2"/>
  <path id="Path_49" data-name="Path 49" d="M8,6V24" transform="translate(4 3)" fill="none" stroke="#788988" stroke-linecap="round" stroke-linejoin="round" stroke-width="2"/>
  <path id="Path_50" data-name="Path 50" d="M5,4H6.5a3,3,0,0,1,3,3,3,3,0,0,1,3-3H14" transform="translate(2.5 2)" fill="none" stroke="#788988" stroke-linecap="round" stroke-linejoin="round" stroke-width="2"/>
</svg>
