<svg id="Documents_File_Reply" data-name="Documents, File, Reply" xmlns="http://www.w3.org/2000/svg" width="24" height="24" viewBox="0 0 24 24">
  <path id="Path_21" data-name="Path 21" d="M0,0H24V24H0Z" fill="none"/>
  <path id="Path_22" data-name="Path 22" d="M19,12V7.828a2,2,0,0,0-.586-1.414L15.586,3.586A2,2,0,0,0,14.172,3H7A2,2,0,0,0,5,5V19a2,2,0,0,0,2,2h4" fill="none" stroke="#f3f7f5" stroke-linecap="round" stroke-linejoin="round" stroke-width="1.5"/>
  <path id="Path_23" data-name="Path 23" d="M19,8H15a1,1,0,0,1-1-1V3" fill="none" stroke="#f3f7f5" stroke-linecap="round" stroke-linejoin="round" stroke-width="1.5"/>
  <path id="Path_24" data-name="Path 24" d="M16,17l-2,2,2,2" fill="none" stroke="#f3f7f5" stroke-linecap="round" stroke-linejoin="round" stroke-width="1.5"/>
  <path id="Path_25" data-name="Path 25" d="M18.01,15h1a2,2,0,0,1,2,2h0a2,2,0,0,1-2,2h-5" fill="none" stroke="#f3f7f5" stroke-linecap="round" stroke-linejoin="round" stroke-width="1.5"/>
</svg>
