<svg id="money-banknote-percent" xmlns="http://www.w3.org/2000/svg" width="36" height="36" viewBox="0 0 36 36">
  <rect id="Rectangle_27" data-name="Rectangle 27" width="36" height="36" fill="none"/>
  <path id="Path_51" data-name="Path 51" d="M12,23.5H6.75A3.75,3.75,0,0,1,3,19.75v-12A3.75,3.75,0,0,1,6.75,4h18A3.75,3.75,0,0,1,28.5,7.75V10" transform="translate(1.5 2)" fill="none" stroke="#788988" stroke-linecap="round" stroke-linejoin="round" stroke-width="2"/>
  <line id="Line_2" data-name="Line 2" x1="1.5" transform="translate(24 10.5)" fill="none" stroke="#788988" stroke-linecap="round" stroke-linejoin="round" stroke-width="2"/>
  <line id="Line_3" data-name="Line 3" x2="1.5" transform="translate(9 21)" fill="none" stroke="#788988" stroke-linecap="round" stroke-linejoin="round" stroke-width="2"/>
  <path id="Path_52" data-name="Path 52" d="M10.1,14.4a3.75,3.75,0,0,1,5.3-5.3" transform="translate(4.5 4)" fill="none" stroke="#788988" stroke-linecap="round" stroke-linejoin="round" stroke-width="2"/>
  <path id="Path_53" data-name="Path 53" d="M15.448,19.1,20.1,14.449" transform="translate(7.724 7.224)" fill="none" stroke="#788988" stroke-linecap="round" stroke-linejoin="round" stroke-width="2"/>
  <path id="Path_54" data-name="Path 54" d="M15.25,14.362a.112.112,0,1,1,.113.113.112.112,0,0,1-.113-.113h0" transform="translate(7.625 7.125)" fill="none" stroke="#788988" stroke-linecap="round" stroke-linejoin="round" stroke-width="2"/>
  <rect id="Rectangle_28" data-name="Rectangle 28" width="15" height="15" rx="3" transform="translate(18 16.5)" fill="none" stroke="#788988" stroke-linecap="round" stroke-linejoin="round" stroke-width="2"/>
  <path id="Path_55" data-name="Path 55" d="M18.825,17.713a.112.112,0,1,1-.113-.113.113.113,0,0,1,.113.113h0" transform="translate(9.3 8.8)" fill="none" stroke="#788988" stroke-linecap="round" stroke-linejoin="round" stroke-width="2"/>
</svg>
